<svg xmlns="http://www.w3.org/2000/svg" height="800" width="1200" viewBox="-25.3104 -68.2 219.3568 409.2"><path d="M84.368 265.8c42.176 0 77.368-57.936 77.368-129.4S126.544 7 84.368 7C42.192 7 7 64.935 7 136.4s35.192 129.4 77.368 129.4z" stroke-width="14" stroke="#000" fill="#FFF"/><path d="M84.118 265.425c42.176 0 77.368-57.936 77.368-129.4s-35.192-129.4-77.368-129.4c-42.176 0-77.368 57.935-77.368 129.4s35.192 129.4 77.368 129.4z" stroke-width="5" stroke="#FB090B" fill="none"/><path d="M58.135 66.858v135.667l12.966 5V66.858z"/><path fill="#FB090B" d="M45.135 74.858v122.667l12.966 5V66.858z"/><path d="M32.135 84.858v102.667l12.966 10V74.858z"/><path fill="#FB090B" d="M19.135 104.858v62.667l12.966 20V84.858z"/><path d="M13.135 116.858v40.667l5.966 12v-67.667z"/><path stroke-linecap="square" stroke-width="5" stroke="#000" fill="none" d="M109.118 69.775v132.75m18-123.25v113.75m-40.475-48.5h67.85m-67.85-17.475h67.85"/><path fill="#FB090B" d="M124.601 77.858l-12.966-8v59.65H84.101v-66.65l-12.966 2v142.667h12.966v-65.051h27.534v60.051l12.966-5v-55.051h32.85v-12.966h-32.85z"/><path stroke-linecap="square" stroke-width="5" stroke="#000" fill="none" d="M86.618 64.775v143"/><circle r="72.125" cy="136.025" cx="84.118" stroke-width="5" stroke="#000" fill="none"/><path d="M47.826 211.996l.662.239c4.469 1.616 6.422-.059 7.098-1.618l3.807 1.377-7.727 21.365-4.634-1.676 5.322-14.715-5.594-2.023zm21.931 11.728c-2.088-.316-2.947-1.935-2.746-3.263.249-1.646 1.569-2.611 3.762-2.279 1.566.237 2.691 1.507 2.433 3.216-.244 1.613-1.535 2.615-3.449 2.326zm7.517 7.966c.44-2.911-.667-4.535-2.871-5.969 2.127-.649 3.247-2.163 3.539-4.093.469-3.101-1.829-6.264-6.945-7.038-4.315-.653-8.041 1.146-8.62 4.975-.316 2.088.513 3.67 2.328 4.851-3.998 1.014-4.448 3.988-4.62 5.127-.464 3.069 1.159 7.166 7.528 8.129 6.542.99 9.23-3.134 9.661-5.982zm-5.04-.568c-.235 1.55-1.511 3.396-4.051 3.012-2.228-.337-3.37-1.966-3.044-4.118.369-2.436 2.232-3.222 4.007-2.954 2.714.411 3.327 2.478 3.088 4.06zm14.401-8.083c-.27-3.253 1.963-4.016 3.226-4.121 2.526-.209 3.886 1.283 4.1 3.866.222 2.679-1.58 3.952-3.298 4.094-1.86.155-3.745-.427-4.028-3.839zm-3.597 10.284c.72 3.568 3.957 5.548 8.201 5.196 4.49-.373 8.815-3.589 8.088-12.358-.265-3.189-1.106-11.628-9.735-10.913-4.876.404-8.275 3.287-7.814 8.836.314 3.795 3.358 6.85 8.129 6.454 1.684-.14 3.582-.682 4.577-2.306l.075.058c.359 4.754-1.546 6.486-3.581 6.654-1.508.125-2.651-.455-3.062-1.994l-.002-.032zm24.595-13.707c-1.054-3.089.925-4.373 2.125-4.782 2.399-.819 4.082.298 4.918 2.75.868 2.544-.569 4.218-2.202 4.775-1.765.603-3.735.497-4.841-2.743zm-.983 10.85c1.567 3.286 5.189 4.417 9.22 3.042 4.264-1.455 7.675-5.628 4.833-13.957-1.033-3.028-3.905-11.009-12.1-8.212-4.631 1.58-7.225 5.204-5.427 10.474 1.229 3.604 4.926 5.825 9.457 4.279 1.599-.545 3.307-1.534 3.877-3.352l.087.038c1.507 4.524.081 6.667-1.851 7.327-1.433.489-2.683.205-3.456-1.188l-.01-.03zM85.328 27.772c-6.948.115-13.059 5.579-12.949 12.214.109 6.589 6.346 11.85 13.344 11.734 3.449-.057 6.679-1.292 8.944-3.42l3.503 3.215c-3.152 2.916-7.572 4.716-12.421 4.796-9.997.165-18.317-7.106-18.468-16.24-.151-9.134 7.774-16.72 17.971-16.888 4.849-.08 9.225 1.484 12.423 4.386l-3.395 3.329c-2.334-2.054-5.453-3.184-8.952-3.126zm16.79 30.128l5-16 4 19h1.875l5.125-12 6.125 18.125 5.75 4-9-31-3.625-2.125-3.875 10.5-3.5-17.375-3.875-2-8 27.875zm-32.375-.875l-7.75-28-6.75 3.875-19.125 39 7.75-5 5-10.125 13.75-5.25 2 6.75zm-18.375-6.25l7.5-15.125 2.625 11.125z"/></svg>