<svg xmlns="http://www.w3.org/2000/svg" height="800" width="1200" viewBox="-30.1023 -46.87825 260.8866 281.2695"><path d="M187.015 107.404v-6.313s-3.84-.834-10.235-2.02l2.664-9.518s-6.45-2.084-18.612-4.305V38.599s-11.958-2.111-29.177-3.648l3.115-9.97L123.728 17l-2.351-7.236-3.854 2.822L119 8.042h-7.611L100.332 0 89.29 8.042h-7.639l1.503 4.544-3.867-2.822L76.922 17l-11.001 7.98 3.129 9.97c-17.219 1.537-29.177 3.648-29.177 3.648v46.649c-12.148 2.221-18.599 4.305-18.599 4.305l2.623 9.518c-6.396 1.186-10.218 2.02-10.218 2.02v6.313L0 121.958l13.68 9.689v7.721s10.792-2.036 26.29-4.168c2.624 36.379 60.362 52.313 60.362 52.313s57.739-15.935 60.391-52.313c15.483 2.132 26.293 4.168 26.293 4.168v-7.721l13.666-9.689M68.299 81.538c-4.92.396-9.416.909-13.557 1.429l6.614-8.583c2.323-.218 4.619-.464 6.942-.669v7.823zm-10.127-9.655l-5.575 7.919V57.978c10.427-1.374 28.288-3.239 47.734-3.239 19.461 0 37.322 1.865 47.722 3.239v21.824l-5.562-7.919c-8.473-1.032-19.925-2.037-32.539-2.398v10.803a625.035 625.035 0 00-9.621-.096c-3.293 0-6.478.048-9.552.096V69.485c-12.654.361-24.066 1.366-32.607 2.398zm74.261 1.831c2.255.205 4.578.451 6.929.669l6.601 8.583a312.73 312.73 0 00-13.529-1.429v-7.823zm-28.11-22.261l8.309-6.062c25.228.93 45.234 4.291 45.234 4.291v35.054a345.273 345.273 0 00-6.272-1.005V55.087c-8.583-1.174-26.854-3.402-47.271-3.634zM42.839 41.086S55.357 38.995 73 37.643l-3.581-11.5 10.072-7.264 1.366-4.325 7.981 5.78-3.075-9.347h4.496l10.071-7.325 10.086 7.325h4.482l-3.021 9.347 7.94-5.78 1.394 4.325 10.072 7.264-3.581 11.5c17.697 1.353 30.161 3.443 30.161 3.443v5.747s-20.554-3.492-46.3-4.366l-11.234 8.138-11.149-8.138c-25.801.874-46.341 4.366-46.341 4.366zm0 8.596s20.021-3.361 45.262-4.291l8.281 6.062c-20.431.232-38.661 2.46-47.271 3.635v28.644c-2.228.328-4.332.677-6.272 1.005zm57.493 33.469c46.492 0 75.437 8.5 75.437 8.5l-3.676 13.389 3.676 16.495s-28.944-8.459-75.437-8.459c-46.478 0-75.395 8.459-75.395 8.459l3.662-16.495-3.662-13.389s28.917-8.5 75.395-8.5zm60.5 38.138c6.259 1.189 11.028 2.323 14.212 3.157l-14.212 5.671zm-41.942 9.689h7.94v1.995h-7.94c-1.913 0-3.416-1.229-3.416-2.733v-3.156c0-1.504 1.503-2.733 3.416-2.733h7.94v2.542l-.848-.547h-7.093c-.547 0-.983.369-.983.738v3.156c.001.424.437.738.984.738zm10.77 21.305v7.845c-3.417 2.364-7.011 4.51-10.551 6.409l-6.327-5.289c6.751-2.842 12.313-5.931 16.878-8.965zm-13.312 15.634c-6.71 3.362-12.764 5.631-16.017 6.697-3.17-1.066-9.251-3.335-15.988-6.697l6.437-5.315v-46.438c3.074-.055 6.259-.123 9.552-.123 3.28 0 6.479.068 9.621.123v46.438zm-63.751-42.816v-5.89a308.828 308.828 0 0115.702-1.749v27.892s-14.267-10.058-15.702-20.253zm15.702 25.255v7.763c-8.159-6.313-14.773-14.172-15.593-23.547 2.296 3.608 6.957 9.58 15.593 15.784zm15.142-22.686v1.995h-6.587v2.61l.752.697h-4.005l.848-.697v-7.202l-.848-.724h11.835v2.542l-.888-.547h-7.694v1.325h6.587zm-12.422 24.613c4.577 3.034 10.167 6.123 16.891 8.965l-6.327 5.289c-3.513-1.899-7.134-4.045-10.563-6.409v-7.845zm61.414-1.927c8.596-6.204 13.256-12.176 15.579-15.784-.833 9.375-7.434 17.233-15.579 23.547zm0-5.002v-27.892a306.696 306.696 0 0115.62 1.749v5.89c-1.38 10.195-15.62 20.253-15.62 20.253zm-92.559-15.237l-14.253-5.671c3.211-.834 8.021-1.968 14.253-3.157zm-23.236 5.699v-5.699l-12.142-8.596 12.142-12.941v-5.043s3.01-.629 8.066-1.599l.848 3.156-4.66 20.677 16.877 6.71c-12.627 1.776-21.131 3.335-21.131 3.335zm141.228-3.185c0 35.285-57.534 51.767-57.534 51.767S42.84 167.917 42.84 132.631v-11.862c1.94-.327 4.045-.669 6.272-1.052v12.914c0 27.072 42.2 42.269 51.22 45.207 9.088-2.938 51.262-18.135 51.262-45.207v-12.914c2.2.383 4.291.725 6.272 1.052zm26.211-2.514v5.699s-8.5-1.559-21.141-3.335l16.822-6.71-4.578-20.677.848-3.156c5.043.97 8.049 1.599 8.049 1.599v5.043l12.149 12.941z" fill="#FFF"/><path fill="#FFF" d="M83.126 23.198l-7.051 5.132 2.87 8.848 8.472-.458 2.748-8.39m14.541-4.257l2.691-8.262-7.065-5.118-7.051 5.118 2.691 8.262m25.775 13.105l2.883-8.848-7.079-5.132-6.969 5.132 2.678 8.39m-5.863 1.804l-2.691-8.281h-8.734l-2.691 8.281 7.051 5.07m-5.083 61.35h8.363c2.077 0 3.785-1.694 3.785-3.771v-7.629c0-2.098-1.708-3.771-3.785-3.771h-8.363a3.77 3.77 0 00-3.786 3.771v7.629c-.001 2.077 1.695 3.771 3.786 3.771m-.643-11.448c0-.403.369-.731.752-.731h8.131c.424 0 .779.328.779.731v7.718c0 .41-.355.752-.779.752h-8.131c-.383 0-.752-.342-.752-.752zm58.887 15.343l8.35 1.421c2.091.342 3.759-1.025 3.759-3.144V99.6c0-2.108-1.668-4.069-3.759-4.445l-8.35-1.407c-2.077-.376-3.84 1.031-3.84 3.102v7.575c0 2.05 1.763 4.059 3.84 4.414m-.684-11.442c0-.472.383-.737.766-.703l8.145 1.407a.956.956 0 01.779.923v7.588c0 .464-.342.737-.779.683l-8.145-1.394c-.383-.068-.766-.506-.766-.93zM55.603 107.65l8.378-.901c2.091-.273 3.785-2.132 3.785-4.265v-7.526c0-2.084-1.694-3.601-3.785-3.307l-8.378.895c-2.077.267-3.758 2.146-3.758 4.224v7.547c0 2.103 1.681 3.62 3.758 3.333m-.601-11.271c0-.438.3-.827.71-.875l8.118-.896c.45-.048.806.205.806.69v7.622c0 .41-.355.793-.806.848l-8.118.889c-.41.081-.71-.232-.71-.67zm-15.334 1.722v10.82l-1.229 1.435 5.589-.984-1.23-1.052V97.554l5.153-.956 1.27 1.052v-4.23l-15.948 2.85v4.205l1.23-1.451m103.028-4.285v10.82l-1.243 1.108 5.602.627-1.229-1.393V95.094l5.151.52 1.23 1.373v-4.175l-15.907-1.694v4.181l1.23-1.113m-22.289 10.895l5.603.164-1.285-1.339v-9.672l8.773 11.407 5.317.328-1.271-1.311V92.075l1.271-1.203-5.604-.349 1.203 1.271v9.761l-8.759-11.435-5.248-.177 1.216 1.305v12.63m-40.847 2.255l5.548-.424-1.229-1.161v-3.335l8.924-.492c.424 0 .793.342.793.725v2.583l-1.285 1.325 5.645-.26-1.258-1.188V101.5a2.62 2.62 0 00-1.776-2.49c1.011-.52 1.776-1.579 1.776-2.774v-2.453c0-2.118-1.694-3.684-3.785-3.574l-13.352.834 1.216 1.155v12.65m3.101-11.195l8.924-.499c.424-.048.793.314.793.738v3.047c0 .458-.369.82-.793.848l-8.924.506z"/><path d="M68.299 73.714c-2.323.205-4.619.451-6.942.669l-6.614 8.583c4.141-.52 8.637-1.032 13.557-1.429m-15.703 43.564c1.435 10.195 15.702 20.253 15.702 20.253v-27.892a308.828 308.828 0 00-15.702 1.749m18.422 40.916c3.43 2.364 7.051 4.51 10.563 6.409l6.327-5.289c-6.724-2.842-12.313-5.931-16.891-8.965m68.344-77.899c-2.351-.218-4.674-.464-6.929-.669v7.823c4.838.396 9.402.909 13.529 1.429m-13.529 62.388s14.24-10.058 15.62-20.253v-5.89a306.825 306.825 0 00-15.62-1.749m-13.324 49.075c3.54-1.899 7.134-4.045 10.551-6.409v-7.845c-4.564 3.034-10.127 6.123-16.878 8.965M96.396 95.313c0-.403.396-.752.834-.752h6.04v-.86h-6.888c-.438 0-.806.41-.806.834v6.46h.819m12.014-7.452v7.629c0 2.597-2.187 4.77-4.797 4.77h-8.363c-.164 0-.369-.041-.574-.041.67.533 1.489.848 2.405.848h7.38c2.651 0 4.742-2.132 4.742-4.783v-6.591c0-.901-.301-1.749-.848-2.392 0 .219.055.376.055.56m46.231 5.949c0-.421.314-.748.738-.625l6.122 1.035v-.831l-6.901-1.188c-.423-.062-.806.219-.806.67v6.392l.847.137m11.944-5.888c0 .175.041.394.041.558v7.543c0 2.638-2.173 4.414-4.783 3.978l-8.35-1.463a1.852 1.852 0 01-.574-.137 4.394 4.394 0 002.351 1.299l7.38 1.243c2.638.506 4.811-1.339 4.811-3.963v-6.532c-.001-.917-.329-1.804-.876-2.526m-110.612-1.92v6.399l.779-.109v-5.586c0-.41.369-.834.819-.896l6.109-.642v-.827l-6.929.766c-.409.082-.778.471-.778.895m12.764-2.385v7.514c0 2.623-2.118 5.001-4.755 5.315l-8.378.902c-.191.068-.355.068-.546.068a3.58 3.58 0 002.364.601l7.352-.86c2.665-.26 4.797-2.638 4.797-5.303V96.55c0-.875-.301-1.661-.834-2.316v.655m-33.673 7.076l1.258-1.49 2.35-.423v-.765l-3.608.629m8.72-1.548v9.35l.833.684v-9.378l3.704-.656-.807-.677m2.679.8l.806.628v-4.196l-.806.171m-9.129 15.768l-.834.983 5.604-1.011-.78-.642m89.103-13.97l2.363.239v-.847l-3.566-.397v2.084m12.449-.717l-3.799-.362v9.378l.861.875v-9.392l3.758.41m1.831.642l.793.889v-4.21l-.793-.075m-9.975 13.95l5.63.614-.847-.901-3.95-.438m-14.54-1.284l.629.861 5.288.341-.833-.834m-1.272-2.718l.834.86V93.988l1.271-1.196-2.105-.089m-11.534 13.594l-3.977-.109-.82.779 5.645.177m-1.272-8.899l-.806-1.101v6.42l.806.861m-26.826-.191v-.984c0-.792-.313-1.489-.847-1.94v2.159m-11.958-.534l6.874-.369v-.806l-7.708.438v1.899l.834.778m.424 1.792l-3.949.314-.82.874 5.616-.424m9.662-8.544c.137.137.273.307.41.481a2.993 2.993 0 001.462-2.538v-1.326c0-.943-.313-1.722-.847-2.351v3.068c0 .957-.369 1.942-1.025 2.666m-10.933-3.512l6.874-.417v-.772l-7.708.443v2.611l.834-.062m9.239 8.996l-.807.874 5.631-.245-.834-.752" fill="#B0B7BB"/><path d="M184.077 108.58v-5.043s-3.006-.629-8.049-1.599l-.848 3.156 4.578 20.677-16.822 6.71c12.641 1.776 21.141 3.335 21.141 3.335v-5.699l12.149-8.596M25.552 105.094l-.848-3.156c-5.057.97-8.066 1.599-8.066 1.599v5.043L4.496 121.521l12.142 8.596v5.699s8.504-1.559 21.131-3.335l-16.877-6.71m28.22-70.684c8.609-1.175 26.84-3.402 47.271-3.635l-8.281-6.062c-25.241.93-45.262 4.291-45.262 4.291v35.054c1.94-.328 4.045-.677 6.272-1.005m108.754 1.006V49.682s-20.007-3.361-45.234-4.291l-8.309 6.062c20.417.232 38.688 2.46 47.271 3.635v28.644c2.199.327 4.318.676 6.272 1.004m-6.273 47.895c0 27.072-42.174 42.269-51.262 45.207-9.02-2.938-51.22-18.135-51.22-45.207v-12.914c-2.228.383-4.332.725-6.272 1.052v11.862c0 35.285 57.492 51.767 57.492 51.767s57.534-16.481 57.534-51.767v-11.862c-1.981-.327-4.072-.669-6.272-1.052" fill="#E31937"/><path d="M100.332 50.605l11.234-8.138c25.746.874 46.3 4.366 46.3 4.366v-5.747s-12.464-2.091-30.161-3.443l3.581-11.5-10.072-7.264-1.394-4.325-7.94 5.78 3.021-9.347h-4.482l-10.086-7.325-10.073 7.325h-4.496l3.075 9.347-7.981-5.78-1.366 4.325-10.072 7.264 3.58 11.5c-17.644 1.353-30.161 3.443-30.161 3.443v5.747s20.54-3.492 46.341-4.366m28.371-19.269l7.079 5.132-2.884 8.849-8.486-.458-2.679-8.391zm-17.219-12.505l7.065 5.118-2.691 8.262h-8.733l-2.691-8.262zm-4.36 19.55h8.733l2.691 8.281-7.065 5.07-7.051-5.07zm-17.027 6.935l-2.87-8.849 7.052-5.132 7.038 5.132-2.747 8.391zm74.63 68.723l8.145 1.394c.438.055.779-.219.779-.683v-7.588a.957.957 0 00-.779-.923l-8.145-1.407c-.383-.034-.766.231-.766.703v7.574c0 .424.383.862.766.93m.218-7.349c0-.451.383-.731.806-.67l6.901 1.188v.831l-6.122-1.035c-.424-.123-.738.204-.738.625v5.589l-.847-.137z" fill="#E31937"/><path d="M24.937 121.535s28.917-8.459 75.395-8.459c46.492 0 75.437 8.459 75.437 8.459l-3.676-16.495 3.676-13.389s-28.944-8.5-75.437-8.5c-46.478 0-75.395 8.5-75.395 8.5l3.662 13.389m6.464-3.075v-2.05l3.608-.629v.766l-2.351.423zm5.166 9.88l.834-.983 3.99-.67.779.643zm4.387-12.821v9.378l-.833-.684v-9.351l3.73-.677.807.677zm27.633 8.831l.82-.874 3.949-.314.847.765zm4.345-2.98l-.834-.778v-1.899l7.708-.438v.806l-6.874.369zm35.258 2.092l.82-.779 3.977.109.848.847zm4.373-2.542l-.806-.861v-6.42l.806 1.101zm8.775 3.116l-.629-.86 5.084.368.833.834zm7.953-10.24v-2.084l3.566.396v.848l-2.363-.239zm5.125 11.388l.833-.725 3.95.438.847.901zm4.386-11.606v9.393l-.861-.875v-9.378l3.799.362.82.908zm24.995 4.636v6.532c0 2.624-2.173 4.469-4.811 3.963l-7.38-1.243a4.398 4.398 0 01-2.351-1.299c.164.068.369.123.574.137l8.35 1.463c2.61.437 4.783-1.34 4.783-3.978v-7.543c0-.164-.041-.383-.041-.558.548.723.876 1.61.876 2.526zm-17.806-4.869c0-2.07 1.763-3.478 3.84-3.102l8.35 1.407c2.091.376 3.759 2.337 3.759 4.445v7.516c0 2.118-1.668 3.485-3.759 3.144l-8.35-1.421c-2.077-.355-3.84-2.364-3.84-4.414zm-1.6-2.111l.793.075v4.21l-.793-.889zm-16.918-3.621l15.907 1.694v4.175l-1.23-1.373-5.151-.52v10.807l1.229 1.394-5.603-.628 1.243-1.107V94.74l-5.166-.553-1.229 1.113zm-2.118 2.87v11.202l-.834-.86V92.703l2.104.089zm-18.941-4.045l5.248.177 8.76 11.436v-9.761l-1.203-1.271 5.604.349-1.271 1.203v12.583l1.271 1.312-5.316-.328-8.773-11.407v9.672l1.285 1.339-5.604-.164 1.217-1.202V91.248zm-.874 5.432v6.591c0 2.651-2.091 4.783-4.742 4.783h-7.38a3.812 3.812 0 01-2.405-.848c.205 0 .41.041.574.041h8.363c2.61 0 4.797-2.173 4.797-4.77v-7.629c0-.185-.055-.342-.055-.561.547.643.848 1.491.848 2.393zm-17.74-1.832a3.769 3.769 0 013.786-3.771h8.363c2.077 0 3.785 1.674 3.785 3.771v7.629c0 2.077-1.708 3.771-3.785 3.771h-8.363a3.782 3.782 0 01-3.786-3.771zm-.805 13.26l-5.631.245.807-.874 3.99-.123zm-2.105-5.494c.533.451.847 1.148.847 1.94v.984l-.847-.766v-2.158zm.847-5.805v1.326a2.993 2.993 0 01-1.462 2.538 5.261 5.261 0 00-.41-.481 4.04 4.04 0 001.025-2.665v-3.068c.533.629.847 1.407.847 2.35zm-18.954-4.462l13.352-.834c2.091-.109 3.785 1.456 3.785 3.574v2.453c0 1.195-.766 2.255-1.776 2.774a2.62 2.62 0 011.776 2.49v2.405l1.258 1.188-5.645.26 1.285-1.325v-2.583c0-.383-.369-.725-.793-.725l-8.924.492v3.335l1.229 1.161-5.548.424 1.216-1.285v-12.65zm-.875 5.508v6.576c0 2.665-2.132 5.043-4.797 5.303l-7.352.86a3.574 3.574 0 01-2.364-.601c.19 0 .354 0 .546-.068l8.378-.902c2.637-.314 4.755-2.692 4.755-5.315v-8.169c.533.655.834 1.441.834 2.316zm-17.725.219c0-2.078 1.681-3.957 3.758-4.224l8.378-.895c2.091-.294 3.785 1.223 3.785 3.307v7.526c0 2.133-1.694 3.991-3.785 4.265l-8.378.901c-2.077.287-3.758-1.229-3.758-3.334zm-1.653-1.675l.806-.171v4.195l-.806-.628zM33.273 96.27l15.948-2.85v4.229l-1.271-1.052-5.152.956v10.766l1.229 1.052-5.589.984 1.229-1.435V98.1l-5.165.923-1.23 1.451V96.27z" fill="#E31937"/><path d="M84.48 96.939v-3.047c0-.424-.369-.786-.793-.738l-8.924.499v4.64l8.924-.506a.858.858 0 00.793-.848m-1.012-1.981l-6.874.417v1.804l-.834.061v-2.61l7.708-.443zm-27.756 9.7l8.118-.889c.45-.055.806-.438.806-.848v-7.622c0-.485-.355-.738-.806-.69l-8.118.896c-.41.048-.71.438-.71.875v7.608c0 .437.3.751.71.67m.26-7.384c0-.424.369-.813.779-.895l6.929-.766v.827l-6.109.642c-.45.062-.819.485-.819.896v5.586l-.779.109v-6.399zm39.386 4.691h8.131c.424 0 .779-.342.779-.752v-7.718c0-.403-.355-.731-.779-.731h-8.131c-.383 0-.752.328-.752.731v7.718c0 .411.369.752.752.752m.219-7.43c0-.424.368-.834.806-.834h6.888v.86h-6.04c-.438 0-.834.349-.834.752v5.682h-.819v-6.46zm-11.029 31.81l.888.547v-2.542H73.601l.848.724v7.202l-.848.697h4.005l-.752-.697v-2.61h6.587v-1.996h-6.587v-1.325m42.036 0h7.093l.848.547v-2.542h-7.94c-1.913 0-3.416 1.229-3.416 2.733v3.156c0 1.504 1.503 2.733 3.416 2.733h7.94v-1.995h-7.94c-.547 0-.983-.314-.983-.738v-3.156c-.001-.369.435-.738.982-.738" fill="#E31937"/><path d="M160.832 121.289v8.828l14.212-5.671c-3.184-.834-7.954-1.968-14.212-3.157m-120.958 8.828v-8.828c-6.231 1.189-11.042 2.323-14.253 3.157m27.086 10.126c.819 9.375 7.434 17.233 15.593 23.547v-7.763c-8.637-6.204-13.298-12.176-15.593-15.784m79.726 15.784v7.763c8.146-6.313 14.746-14.172 15.579-23.547-2.323 3.608-6.983 9.58-15.579 15.784M52.597 57.978v21.824l5.575-7.919c8.541-1.032 19.952-2.037 32.607-2.398v10.803c3.074-.048 6.259-.096 9.552-.096 3.28 0 6.479.048 9.621.096V69.485c12.614.361 24.066 1.366 32.539 2.398l5.562 7.919V57.978c-10.399-1.374-28.261-3.239-47.722-3.239-19.446 0-37.307 1.865-47.734 3.239m57.356 58.186c-3.143-.055-6.341-.123-9.621-.123-3.293 0-6.478.068-9.552.123v46.438l-6.437 5.315c6.737 3.362 12.818 5.631 15.988 6.697 3.253-1.066 9.307-3.335 16.017-6.697l-6.396-5.315" fill="#455560"/></svg>